<?xml version="1.0"?>
<svg xmlns="http://www.w3.org/2000/svg" xmlns:xlink="http://www.w3.org/1999/xlink" version="1.1" viewBox="0 0 252 252" width="528px" height="528px"><g transform="translate(-7.56,-7.56) scale(1.06,1.06)"><g fill="none" fill-rule="nonzero" stroke="none" stroke-width="1" stroke-linecap="butt" stroke-linejoin="miter" stroke-miterlimit="10" stroke-dasharray="" stroke-dashoffset="0" font-family="none" font-weight="none" font-size="none" text-anchor="none" style="mix-blend-mode: normal"><path d="M0,252v-252h252v252z" fill="none"/><g><g id="surface1"><path d="M28.875,212.625h194.25c10.15137,0 18.375,-8.22363 18.375,-18.375v-136.5c0,-10.15137 -8.22363,-18.375 -18.375,-18.375h-194.25c-10.15137,0 -18.375,8.22363 -18.375,18.375v136.5c0,10.15137 8.22363,18.375 18.375,18.375z" fill="#e0e0e0"/><path d="M136.5,212.625h86.625c10.15137,0 18.375,-8.22363 18.375,-18.375v-136.5c0,-10.15137 -8.22363,-18.375 -18.375,-18.375h-194.25c-10.15137,0 -18.375,8.22363 -18.375,18.375z" fill="#d9d9d9"/><path d="M35.41699,212.625h187.70801c10.15137,0 18.375,-8.22363 18.375,-18.375v-133.875z" fill="#eeeeee"/><path d="M135.16699,212.625h87.95801c10.15137,0 18.375,-8.22363 18.375,-18.375v-133.875l-142.95996,105.61524z" fill="#e0e0e0"/><path d="M223.125,49.875h-194.25c-10.15137,0 -18.375,-2.27637 -18.375,7.875v136.5c0,10.15137 8.22363,18.375 18.375,18.375h7.875v-149.625h178.5v149.625h7.875c10.15137,0 18.375,-8.22363 18.375,-18.375v-136.5c0,-10.15137 -8.22363,-7.875 -18.375,-7.875z" fill="#ca3737"/><path d="M223.125,39.375h-194.25c-10.15137,0 -18.375,8.05957 -18.375,18.375c0,6.33691 7.97754,11.85352 7.97754,11.85352l107.52246,76.125l107.52246,-76.125c0,0 7.97754,-5.51661 7.97754,-11.85352c0,-10.31543 -8.22363,-18.375 -18.375,-18.375z" fill="#f5f5f5"/><path d="M227.04199,39.80566l-101.04199,70.44434l-101.04199,-70.44434c-8.26464,1.76367 -14.45801,9.00293 -14.45801,17.94434c0,6.33691 7.97754,11.85352 7.97754,11.85352l107.52246,76.125l107.52246,-76.125c0,0 7.97754,-5.51661 7.97754,-11.85352c0,-8.94141 -6.19336,-16.18066 -14.45801,-17.94434z" fill="#e84f4b"/></g></g></g></g></svg>
