<?xml version="1.0"?>
<svg xmlns="http://www.w3.org/2000/svg" xmlns:xlink="http://www.w3.org/1999/xlink" version="1.1" viewBox="0 0 252 252" width="520px" height="520px"><g transform="translate(-22.68,-22.68) scale(1.18,1.18)"><g fill="none" fill-rule="nonzero" stroke="none" stroke-width="none" stroke-linecap="butt" stroke-linejoin="miter" stroke-miterlimit="10" stroke-dasharray="" stroke-dashoffset="0" font-family="none" font-weight="none" font-size="none" text-anchor="none" style="mix-blend-mode: normal"><path d="M0,252v-252h252v252z" fill="none" stroke="none" stroke-width="1"/><g id="Layer_1" fill="#4caf50" stroke="#2e7d32" stroke-width="10.5"><path d="M126,26.397c-55.0935,0 -99.75,44.877 -99.75,100.20675c0,42.882 26.82225,79.443 64.50675,93.7545l21.85575,-60.1545c-13.671,-5.36025 -23.3625,-18.6375 -23.3625,-34.20375c0,-20.2965 16.4535,-36.75 36.75,-36.75c20.2965,0 36.75,16.4535 36.75,36.75c0,15.56625 -9.6915,28.8435 -23.3625,34.1985l21.85575,60.1545c37.6845,-14.30625 64.50675,-50.86725 64.50675,-93.7545c0,-55.32975 -44.6565,-100.2015 -99.75,-100.2015z"/></g></g></g></svg>
