<?xml version="1.0"?>
<svg xmlns="http://www.w3.org/2000/svg" xmlns:xlink="http://www.w3.org/1999/xlink" version="1.1" viewBox="0 0 252 252" width="528px" height="528px"><g transform="translate(-13.86,-13.86) scale(1.11,1.11)"><g fill="none" fill-rule="nonzero" stroke="none" stroke-width="1" stroke-linecap="butt" stroke-linejoin="miter" stroke-miterlimit="10" stroke-dasharray="" stroke-dashoffset="0" font-family="none" font-weight="none" font-size="none" text-anchor="none" style="mix-blend-mode: normal"><path d="M0,252v-252h252v252z" fill="none"/><g id="Layer_1"><circle cx="24" cy="24" transform="scale(5.25,5.25)" r="20" fill="#03a9f4"/><circle cx="33.5" cy="33.5" transform="scale(5.25,5.25)" r="11.5" fill="#03a9f4"/><circle cx="14.5" cy="14.5" transform="scale(5.25,5.25)" r="11.5" fill="#03a9f4"/><path d="M129.1605,189c-34.6605,0 -50.4105,-17.33025 -50.4105,-30.45525c0,-6.83025 4.7145,-11.54475 11.54475,-11.54475c14.70525,0 11.0355,21.5355 38.8605,21.5355c14.16975,0 22.04475,-7.875 22.04475,-15.75c0,-4.7355 -2.1105,-9.9855 -11.54475,-12.6105l-30.9855,-7.875c-24.66975,-6.3 -29.38425,-19.9605 -29.38425,-33.0855c0,-26.7645 24.66975,-36.2145 47.7645,-36.2145c21.53025,0 46.2,11.54475 46.2,27.29475c0,6.83025 -5.25,11.0355 -12.08025,11.0355c-12.5895,0 -10.5,-17.8605 -35.70525,-17.8605c-12.5895,0 -19.93425,5.7855 -19.93425,14.19075c0,8.3895 9.9645,11.0145 18.8895,13.125l23.1105,5.25c25.18425,5.75925 30.96975,20.4645 30.96975,34.63425c-0.5355,22.04475 -16.2855,38.33025 -49.3395,38.33025z" fill="#ffffff"/></g></g></g></svg>
