<?xml version="1.0"?>
<svg xmlns="http://www.w3.org/2000/svg" xmlns:xlink="http://www.w3.org/1999/xlink" version="1.1" viewBox="0 0 252 252" width="528px" height="528px"><defs><linearGradient x1="126" y1="21" x2="126" y2="230.2335" gradientUnits="userSpaceOnUse" id="color-1"><stop offset="0" stop-color="#42bce8"/><stop offset="1" stop-color="#23a7dc"/></linearGradient></defs><g transform="translate(-22.68,-22.68) scale(1.18,1.18)"><g fill="none" fill-rule="nonzero" stroke="none" stroke-width="1" stroke-linecap="butt" stroke-linejoin="miter" stroke-miterlimit="10" stroke-dasharray="" stroke-dashoffset="0" font-family="none" font-weight="none" font-size="none" text-anchor="none" style="mix-blend-mode: normal"><path d="M0,252v-252h252v252z" fill="none"/><g id="Layer_1"><circle cx="24" cy="24" transform="scale(5.25,5.25)" r="20" fill="url(#color-1)"/><path d="M179.424,77.75775l-20.03925,102.333c0,0 -2.8035,7.098 -10.5105,3.69075l-46.24725,-35.91l-16.81575,-8.232l-28.308,-9.6495c0,0 -4.347,-1.55925 -4.767,-4.9665c-0.42,-3.40725 4.9035,-5.25 4.9035,-5.25l112.539,-44.709c-0.00525,-0.00525 9.24525,-4.12125 9.24525,2.69325z" fill="#ffffff"/><path d="M99.0675,178.93575c0,0 -1.34925,-0.126 -3.0345,-5.523c-1.68,-5.39175 -10.23225,-33.7785 -10.23225,-33.7785l67.97175,-43.71675c0,0 3.92175,-2.415 3.78525,0c0,0 0.69825,0.42525 -1.40175,2.415c-2.1,1.98975 -53.39775,48.68325 -53.39775,48.68325" fill="#d2e5f1"/><path d="M120.35625,161.637l-18.291,16.88925c0,0 -1.428,1.09725 -2.9925,0.4095l3.50175,-31.374" fill="#b5cfe4"/></g></g></g></svg>
