<?xml version="1.0"?>
<svg xmlns="http://www.w3.org/2000/svg" xmlns:xlink="http://www.w3.org/1999/xlink" version="1.1" viewBox="0 0 252 252" width="520px" height="520px"><g transform="translate(-37.8,-37.8) scale(1.3,1.3)"><g fill="none" fill-rule="nonzero" stroke="none" stroke-width="1" stroke-linecap="butt" stroke-linejoin="miter" stroke-miterlimit="10" stroke-dasharray="" stroke-dashoffset="0" font-family="none" font-weight="none" font-size="none" text-anchor="none" style="mix-blend-mode: normal"><path d="M0,252v-252h252v252z" fill="none"/><g><g id="surface1"><path d="M220.5,194.25c0,14.49902 -11.75098,26.25 -26.25,26.25h-136.5c-14.49902,0 -26.25,-11.75098 -26.25,-26.25v-136.5c0,-14.49902 11.75098,-26.25 26.25,-26.25h136.5c14.49902,0 26.25,11.75098 26.25,26.25z" fill="#0288d1"/><path d="M174.21387,143.63672c10.93066,10.2334 13.20703,15.23731 13.57617,15.85254c4.51172,7.58789 -5.00391,8.18262 -5.00391,8.18262l-18.23144,0.2666c0,0 -3.9375,0.7793 -9.08496,-2.80957c-6.8291,-4.71679 -16.16016,-17.02148 -21.16406,-15.42187c-5.08594,1.62012 -3.46582,14.51953 -3.46582,14.51953c0,0 0.04102,1.5791 -1.10742,2.85059c-1.27149,1.33301 -3.73242,0.82031 -3.73242,0.82031h-5.25c0,0 -19.46191,0.08203 -35.33496,-16.61133c-17.28808,-18.19043 -31.74609,-52.21289 -31.74609,-52.21289c0,0 -0.88183,-2.15332 0.06152,-3.30176c1.08691,-1.29199 4.01953,-1.27149 4.01953,-1.27149h19.50293c0,0 1.82519,0.24609 3.13769,1.23047c1.10742,0.79981 1.70215,2.31738 1.70215,2.31738c0,0 2.3584,6.33692 6.54199,13.6377c8.1416,14.23242 11.93554,17.34961 14.7041,15.81152c4.01953,-2.23535 2.80957,-20.11816 2.80957,-20.11816c0,0 0.08203,-6.50098 -2.03027,-9.39258c-1.64062,-2.25586 -4.69629,-2.91211 -6.0498,-3.09668c-1.10742,-0.12305 0.69726,-2.70703 3.03516,-3.85547c3.50683,-1.72266 9.7207,-1.84571 17.04199,-1.76367c5.70117,0.06152 7.85449,-0.02051 7.85449,-0.02051c6.72656,1.64063 4.45019,7.99805 4.45019,23.17383c0,4.88086 -0.88183,11.73047 2.60449,13.98633c1.49707,1.00488 6.87012,1.14844 15.99609,-14.54004c4.34766,-7.44434 7.77246,-14.4375 7.77246,-14.4375c0,0 0.73828,-1.5791 1.82519,-2.23535c1.14844,-0.69727 2.66602,-0.69727 2.66602,-0.69727l20.52832,0.10254c0,0 6.17285,-0.77929 7.15723,2.05078c1.0459,2.95313 -2.52246,8.12109 -10.88965,19.4209c-13.78125,18.55957 -15.31933,16.83691 -3.89648,27.5625z" fill="#ffffff"/></g></g></g></g></svg>
