<?xml version="1.0"?>
<svg xmlns="http://www.w3.org/2000/svg" xmlns:xlink="http://www.w3.org/1999/xlink" version="1.1" viewBox="0 0 252 252" width="520px" height="520px"><g transform="translate(-20.16,-20.16) scale(1.16,1.16)"><g fill="none" fill-rule="nonzero" stroke="none" stroke-width="1" stroke-linecap="butt" stroke-linejoin="miter" stroke-miterlimit="10" stroke-dasharray="" stroke-dashoffset="0" font-family="none" font-weight="none" font-size="none" text-anchor="none" style="mix-blend-mode: normal"><path d="M0,252v-252h252v252z" fill="none"/><g><g id="surface1"><path d="M226.7959,177.9668c-2.0918,11.0332 -11.01269,19.44141 -22.0459,21c-17.3291,2.625 -46.2041,5.7832 -78.75,5.7832c-32.0332,0 -60.9082,-3.1582 -78.75,-5.7832c-11.0332,-1.55859 -19.9541,-9.9668 -22.0459,-21c-2.1123,-12.05859 -4.2041,-29.9209 -4.2041,-51.9668c0,-22.0459 2.0918,-39.9082 4.2041,-51.96679c2.0918,-11.03321 11.0127,-19.44141 22.0459,-21c17.3291,-2.625 46.2041,-5.78321 78.75,-5.78321c32.5459,0 60.90821,3.15821 78.75,5.78321c11.03321,1.55859 19.9541,9.96679 22.0459,21c2.11231,12.05859 4.73731,29.92089 4.73731,51.96679c-0.53321,22.0459 -2.625,39.90821 -4.73731,51.9668z" fill="#ff3d00"/><path d="M105,162.75v-73.5l63,36.75z" fill="#ffffff"/></g></g></g></g></svg>
